<svg width="979" height="139" viewBox="0 0 979 139" fill="none" xmlns="http://www.w3.org/2000/svg">
<path d="M882.636 136.6C880.769 136.6 879.836 135.667 879.836 133.8V2.8C879.836 0.933333 880.769 0 882.636 0H909.036C910.903 0 911.836 0.933333 911.836 2.8V48.2C911.836 52.7333 911.769 57.3333 911.636 62C911.503 66.5333 911.303 71.1333 911.036 75.8H911.636C913.636 72.4667 915.769 69.1333 918.036 65.8C920.303 62.4667 922.503 59.3333 924.636 56.4L938.036 38.8C938.836 37.7333 939.903 37.2 941.236 37.2H973.436C974.636 37.2 975.369 37.5333 975.636 38.2C976.036 38.7333 975.836 39.4667 975.036 40.4L942.036 80.4L977.636 133.2C978.303 134.133 978.436 134.933 978.036 135.6C977.769 136.267 977.103 136.6 976.036 136.6H944.836C943.369 136.6 942.236 136 941.436 134.8L920.236 101.8L911.836 111.6V133.8C911.836 135.667 910.903 136.6 909.036 136.6H882.636Z" fill="#0A693D"/>
<path d="M816.442 139C800.042 139 788.042 135.6 780.442 128.8C772.842 122 769.042 111.933 769.042 98.5999V77.3999C769.042 63.3999 772.775 52.7999 780.242 45.5999C787.842 38.3999 799.709 34.7999 815.842 34.7999C831.442 34.7999 843.109 38.2666 850.842 45.1999C858.709 51.9999 862.642 62.1999 862.642 75.7999V91.3999C862.642 93.2666 861.709 94.1999 859.842 94.1999H800.442V99.9999C800.442 105.067 801.642 108.933 804.042 111.6C806.442 114.133 810.375 115.4 815.842 115.4C820.109 115.4 823.442 114.733 825.842 113.4C828.375 112.067 829.642 110 829.642 107.2C829.642 105.6 830.575 104.8 832.442 104.8H857.842C859.575 104.8 860.509 105.667 860.642 107.4C860.775 118.2 857.242 126.2 850.042 131.4C842.842 136.467 831.642 139 816.442 139ZM800.442 76.5999H831.442V75.7999C831.442 69.6666 830.242 65.2666 827.842 62.5999C825.442 59.9333 821.575 58.5999 816.242 58.5999C810.642 58.5999 806.575 59.9333 804.042 62.5999C801.642 65.2666 800.442 69.6666 800.442 75.7999V76.5999Z" fill="#0A693D"/>
<path d="M722.538 136.6C720.671 136.6 719.738 135.667 719.738 133.8V74.7999C719.738 70.5333 718.871 67.3999 717.138 65.3999C715.538 63.2666 712.871 62.1999 709.138 62.1999C705.271 62.1999 701.471 63.3999 697.738 65.7999C694.138 68.0666 690.604 70.9333 687.138 74.3999L684.938 54.5999C688.004 51.2666 691.404 48.1333 695.138 45.1999C698.871 42.1333 703.004 39.6666 707.538 37.7999C712.204 35.7999 717.404 34.7999 723.138 34.7999C732.604 34.7999 739.738 37.3999 744.538 42.5999C749.338 47.7999 751.738 56.0666 751.738 67.3999V133.8C751.738 135.667 750.804 136.6 748.938 136.6H722.538ZM661.738 136.6C659.871 136.6 658.938 135.667 658.938 133.8V62.9999C658.938 58.7333 658.804 54.6666 658.538 50.7999C658.404 46.9333 658.204 43.3999 657.938 40.1999C657.671 38.1999 658.538 37.1999 660.538 37.1999H683.338C684.938 37.1999 685.938 37.9333 686.338 39.3999C686.604 40.7333 686.871 42.3333 687.138 44.1999C687.404 45.9333 687.671 47.7999 687.938 49.7999C688.204 51.6666 688.338 53.4666 688.338 55.1999L690.938 66.9999V133.8C690.938 135.667 690.004 136.6 688.138 136.6H661.738Z" fill="#0A693D"/>
<path d="M594.381 139C579.448 139 567.714 135.467 559.181 128.4C550.781 121.333 546.581 110.733 546.581 96.5999V77.1999C546.581 63.0666 550.781 52.4666 559.181 45.3999C567.581 38.3333 579.314 34.7999 594.381 34.7999C609.448 34.7999 621.181 38.3333 629.581 45.3999C637.981 52.4666 642.181 63.0666 642.181 77.1999V96.5999C642.181 110.733 637.981 121.333 629.581 128.4C621.181 135.467 609.448 139 594.381 139ZM594.381 112C599.848 112 603.848 110.6 606.381 107.8C608.914 105 610.181 100.267 610.181 93.5999V79.9999C610.181 73.4666 608.914 68.7999 606.381 65.9999C603.848 63.1999 599.848 61.7999 594.381 61.7999C588.914 61.7999 584.914 63.1999 582.381 65.9999C579.848 68.7999 578.581 73.4666 578.581 79.9999V93.5999C578.581 100.267 579.848 105 582.381 107.8C584.914 110.6 588.914 112 594.381 112Z" fill="#0A693D"/>
<path d="M430.534 136.6C428.668 136.6 427.734 135.667 427.734 133.8V8.39998C427.734 6.53331 428.668 5.59998 430.534 5.59998H457.934C459.801 5.59998 460.734 6.53331 460.734 8.39998V37.4C460.734 41.2666 460.668 45.2 460.534 49.2C460.401 53.0666 460.201 56.9333 459.934 60.8H460.334C462.601 56.9333 464.934 53.1333 467.334 49.4C469.734 45.5333 472.401 41.6666 475.334 37.8L499.334 7.19998C500.001 6.13331 501.068 5.59998 502.534 5.59998H535.734C536.801 5.59998 537.534 5.93331 537.934 6.59998C538.334 7.13331 538.134 7.93331 537.334 8.99998L497.134 58.6L542.134 133.2C542.668 134.267 542.734 135.133 542.334 135.8C541.934 136.333 541.268 136.6 540.334 136.6H506.934C505.334 136.6 504.201 136 503.534 134.8L474.734 84.8L460.734 101.2V133.8C460.734 135.667 459.801 136.6 457.934 136.6H430.534Z" fill="#0A693D"/>
<path d="M381.819 136.6C381.019 136.6 380.352 136.4 379.819 136C379.419 135.6 379.152 135 379.019 134.2C378.619 132.467 378.219 130.2 377.819 127.4C377.419 124.6 377.019 121.667 376.619 118.6L374.219 110V69.5999C374.219 65.1999 373.352 62.1333 371.619 60.3999C370.019 58.6666 367.086 57.7999 362.819 57.7999C354.952 57.7999 351.286 60.9333 351.819 67.1999C351.952 69.0666 351.019 69.9999 349.019 69.9999H324.819C323.086 69.9999 322.086 68.9999 321.819 66.9999C321.019 56.3333 324.219 48.3333 331.419 42.9999C338.619 37.5333 349.486 34.7999 364.019 34.7999C378.952 34.7999 389.686 37.6666 396.219 43.3999C402.886 48.9999 406.219 58.1999 406.219 70.9999V110.8C406.219 114.8 406.286 118.667 406.419 122.4C406.552 126.133 406.819 129.867 407.219 133.6C407.486 135.6 406.619 136.6 404.619 136.6H381.819ZM343.419 139C335.152 139 328.752 136.533 324.219 131.6C319.819 126.667 317.619 119.733 317.619 110.8C317.619 103.867 318.886 98.2666 321.419 93.9999C324.086 89.5999 328.419 86.1999 334.419 83.7999C340.419 81.2666 348.552 79.5333 358.819 78.5999L377.019 76.7999L376.819 92.9999L363.619 94.3999C357.886 94.9333 353.886 96.1333 351.619 97.9999C349.352 99.8666 348.219 102.8 348.219 106.8C348.219 110 348.819 112.333 350.019 113.8C351.352 115.133 353.352 115.8 356.019 115.8C359.486 115.8 362.886 114.8 366.219 112.8C369.552 110.667 373.352 107.2 377.619 102.4L379.619 119.6C376.152 123.2 372.619 126.467 369.019 129.4C365.552 132.2 361.752 134.533 357.619 136.4C353.486 138.133 348.752 139 343.419 139Z" fill="#222222"/>
<path d="M262.358 139C247.558 139 236.891 136.467 230.358 131.4C223.958 126.2 221.224 117.933 222.158 106.6C222.424 104.733 223.424 103.8 225.158 103.8H249.358C251.091 103.8 251.958 104.8 251.958 106.8C251.958 110.133 252.824 112.667 254.558 114.4C256.291 116.133 258.891 117 262.358 117C266.224 117 269.091 116.4 270.958 115.2C272.824 114 273.758 112.067 273.758 109.4C273.758 107.267 273.024 105.533 271.558 104.2C270.091 102.867 267.491 101.4 263.758 99.7999L240.758 89.9999C234.358 87.1999 229.691 83.7999 226.758 79.7999C223.958 75.6666 222.558 70.1999 222.558 63.3999C222.558 53.6666 225.758 46.4666 232.158 41.7999C238.558 37.1333 248.691 34.7999 262.558 34.7999C276.824 34.7999 287.224 37.2666 293.758 42.1999C300.424 46.9999 303.758 54.3999 303.758 64.3999C303.758 66.2666 302.758 67.1999 300.758 67.1999H276.758C275.024 67.1999 274.158 66.1333 274.158 63.9999C274.158 61.5999 273.291 59.7999 271.558 58.5999C269.824 57.2666 267.358 56.5999 264.158 56.5999C260.824 56.5999 258.358 57.1333 256.758 58.1999C255.291 59.2666 254.558 60.9999 254.558 63.3999C254.558 64.9999 255.158 66.3999 256.358 67.5999C257.558 68.7999 259.891 70.1333 263.358 71.5999L286.158 80.9999C293.091 83.7999 298.091 87.2666 301.158 91.3999C304.224 95.5333 305.758 101.133 305.758 108.2C305.758 118.467 302.091 126.2 294.758 131.4C287.558 136.467 276.758 139 262.358 139Z" fill="#222222"/>
<path d="M180.843 136.6C180.043 136.6 179.376 136.4 178.843 136C178.443 135.6 178.176 135 178.043 134.2C177.643 132.467 177.243 130.2 176.843 127.4C176.443 124.6 176.043 121.667 175.643 118.6L173.243 110V69.5999C173.243 65.1999 172.376 62.1333 170.643 60.3999C169.043 58.6666 166.109 57.7999 161.843 57.7999C153.976 57.7999 150.309 60.9333 150.843 67.1999C150.976 69.0666 150.043 69.9999 148.043 69.9999H123.843C122.109 69.9999 121.109 68.9999 120.843 66.9999C120.043 56.3333 123.243 48.3333 130.443 42.9999C137.643 37.5333 148.509 34.7999 163.043 34.7999C177.976 34.7999 188.709 37.6666 195.243 43.3999C201.909 48.9999 205.243 58.1999 205.243 70.9999V110.8C205.243 114.8 205.309 118.667 205.443 122.4C205.576 126.133 205.843 129.867 206.243 133.6C206.509 135.6 205.643 136.6 203.643 136.6H180.843ZM142.443 139C134.176 139 127.776 136.533 123.243 131.6C118.843 126.667 116.643 119.733 116.643 110.8C116.643 103.867 117.909 98.2666 120.443 93.9999C123.109 89.5999 127.443 86.1999 133.443 83.7999C139.443 81.2666 147.576 79.5333 157.843 78.5999L176.043 76.7999L175.843 92.9999L162.643 94.3999C156.909 94.9333 152.909 96.1333 150.643 97.9999C148.376 99.8666 147.243 102.8 147.243 106.8C147.243 110 147.843 112.333 149.043 113.8C150.376 115.133 152.376 115.8 155.043 115.8C158.509 115.8 161.909 114.8 165.243 112.8C168.576 110.667 172.376 107.2 176.643 102.4L178.643 119.6C175.176 123.2 171.643 126.467 168.043 129.4C164.576 132.2 160.776 134.533 156.643 136.4C152.509 138.133 147.776 139 142.443 139Z" fill="#222222"/>
<path d="M2.8 136.6C0.933333 136.6 0 135.667 0 133.8V8.39998C0 6.53331 0.933333 5.59998 2.8 5.59998H47.6C64.2667 5.59998 76.8 8.26665 85.2 13.6C93.6 18.8 97.8 26.8 97.8 37.6C97.8 45.6 96.0667 51.9333 92.6 56.6C89.2667 61.2666 84.0667 64.8 77 67.2V67.8C85.2667 69.4 91.7333 72.6 96.4 77.4C101.067 82.0667 103.4 88.7333 103.4 97.4C103.4 111.4 99 121.467 90.2 127.6C81.5333 133.6 67.2667 136.6 47.4 136.6H2.8ZM33 110H49.2C56.6667 110 62.0667 108.933 65.4 106.8C68.7333 104.667 70.4 101 70.4 95.8C70.4 91.1333 68.6667 87.7333 65.2 85.6C61.8667 83.3333 56.4667 82.2 49 82.2H33V110ZM33 58.4H47.4C53.5333 58.4 57.9333 57.2666 60.6 55C63.4 52.7333 64.8 49.3333 64.8 44.8C64.8 40.6666 63.2667 37.5333 60.2 35.4C57.2667 33.2666 52.6 32.2 46.2 32.2H33V58.4Z" fill="#222222"/>
</svg>
