<svg width="992" height="877" viewBox="0 0 992 877" fill="none" xmlns="http://www.w3.org/2000/svg">
<path d="M600.621 0.341797C670.241 4.85798 727.76 53.7638 745.165 119.041H563.254C550.346 234 510.449 257 370.449 324.675C510.486 401.659 550.345 456 558.363 538.459H740.172C718.379 595.855 664.611 637.506 600.621 641.657V642H290.574C262.96 642 240.574 619.614 240.574 592V50C240.574 22.3858 262.96 8.04244e-07 290.574 0H600.621V0.341797Z" fill="#222222"/>
<path d="M591.706 493.665L751.308 493.665C751.308 441 760.574 338 615.574 320.5C711.574 320.5 751.308 240.5 751.308 163.665L606.574 163.665C606.142 230.548 534.642 288.025 439.782 325.383C534.95 358.769 582.435 425.5 591.706 493.665Z" fill="#0A693D"/>
<path d="M889.505 874.6C887.638 874.6 886.705 873.667 886.705 871.8V740.8C886.705 738.933 887.638 738 889.505 738H915.905C917.772 738 918.705 738.933 918.705 740.8V786.2C918.705 790.733 918.638 795.333 918.505 800C918.372 804.533 918.172 809.133 917.905 813.8H918.505C920.505 810.467 922.638 807.133 924.905 803.8C927.172 800.467 929.372 797.333 931.505 794.4L944.905 776.8C945.705 775.733 946.772 775.2 948.105 775.2H980.305C981.505 775.2 982.238 775.533 982.505 776.2C982.905 776.733 982.705 777.467 981.905 778.4L948.905 818.4L984.505 871.2C985.172 872.133 985.305 872.933 984.905 873.6C984.638 874.267 983.972 874.6 982.905 874.6H951.705C950.238 874.6 949.105 874 948.305 872.8L927.105 839.8L918.705 849.6V871.8C918.705 873.667 917.772 874.6 915.905 874.6H889.505Z" fill="#0A693D"/>
<path d="M823.311 877C806.911 877 794.911 873.6 787.311 866.8C779.711 860 775.911 849.933 775.911 836.6V815.4C775.911 801.4 779.644 790.8 787.111 783.6C794.711 776.4 806.578 772.8 822.711 772.8C838.311 772.8 849.978 776.267 857.711 783.2C865.578 790 869.511 800.2 869.511 813.8V829.4C869.511 831.267 868.578 832.2 866.711 832.2H807.311V838C807.311 843.067 808.511 846.933 810.911 849.6C813.311 852.133 817.245 853.4 822.711 853.4C826.978 853.4 830.311 852.733 832.711 851.4C835.245 850.067 836.511 848 836.511 845.2C836.511 843.6 837.444 842.8 839.311 842.8H864.711C866.445 842.8 867.378 843.667 867.511 845.4C867.645 856.2 864.111 864.2 856.911 869.4C849.711 874.467 838.511 877 823.311 877ZM807.311 814.6H838.311V813.8C838.311 807.667 837.111 803.267 834.711 800.6C832.311 797.933 828.444 796.6 823.111 796.6C817.511 796.6 813.444 797.933 810.911 800.6C808.511 803.267 807.311 807.667 807.311 813.8V814.6Z" fill="#0A693D"/>
<path d="M729.407 874.6C727.54 874.6 726.607 873.667 726.607 871.8V812.8C726.607 808.533 725.74 805.4 724.007 803.4C722.407 801.267 719.74 800.2 716.007 800.2C712.14 800.2 708.34 801.4 704.607 803.8C701.007 806.067 697.474 808.933 694.007 812.4L691.807 792.6C694.873 789.267 698.274 786.133 702.007 783.2C705.74 780.133 709.874 777.667 714.407 775.8C719.074 773.8 724.274 772.8 730.007 772.8C739.474 772.8 746.607 775.4 751.407 780.6C756.207 785.8 758.607 794.067 758.607 805.4V871.8C758.607 873.667 757.673 874.6 755.807 874.6H729.407ZM668.607 874.6C666.74 874.6 665.807 873.667 665.807 871.8V801C665.807 796.733 665.674 792.667 665.407 788.8C665.274 784.933 665.073 781.4 664.807 778.2C664.54 776.2 665.407 775.2 667.407 775.2H690.207C691.807 775.2 692.807 775.933 693.207 777.4C693.474 778.733 693.74 780.333 694.007 782.2C694.274 783.933 694.54 785.8 694.807 787.8C695.073 789.667 695.207 791.467 695.207 793.2L697.807 805V871.8C697.807 873.667 696.874 874.6 695.007 874.6H668.607Z" fill="#0A693D"/>
<path d="M601.25 877C586.317 877 574.584 873.467 566.05 866.4C557.65 859.333 553.45 848.733 553.45 834.6V815.2C553.45 801.067 557.65 790.467 566.05 783.4C574.45 776.333 586.184 772.8 601.25 772.8C616.317 772.8 628.05 776.333 636.45 783.4C644.85 790.467 649.05 801.067 649.05 815.2V834.6C649.05 848.733 644.85 859.333 636.45 866.4C628.05 873.467 616.317 877 601.25 877ZM601.25 850C606.717 850 610.717 848.6 613.25 845.8C615.784 843 617.05 838.267 617.05 831.6V818C617.05 811.467 615.784 806.8 613.25 804C610.717 801.2 606.717 799.8 601.25 799.8C595.784 799.8 591.784 801.2 589.25 804C586.717 806.8 585.45 811.467 585.45 818V831.6C585.45 838.267 586.717 843 589.25 845.8C591.784 848.6 595.784 850 601.25 850Z" fill="#0A693D"/>
<path d="M437.404 874.6C435.537 874.6 434.604 873.667 434.604 871.8V746.4C434.604 744.533 435.537 743.6 437.404 743.6H464.804C466.67 743.6 467.604 744.533 467.604 746.4V775.4C467.604 779.267 467.537 783.2 467.404 787.2C467.27 791.067 467.07 794.933 466.804 798.8H467.204C469.47 794.933 471.804 791.133 474.204 787.4C476.604 783.533 479.27 779.667 482.204 775.8L506.204 745.2C506.87 744.133 507.937 743.6 509.404 743.6H542.604C543.67 743.6 544.404 743.933 544.804 744.6C545.204 745.133 545.004 745.933 544.204 747L504.004 796.6L549.004 871.2C549.537 872.267 549.604 873.133 549.204 873.8C548.804 874.333 548.137 874.6 547.204 874.6H513.804C512.204 874.6 511.07 874 510.404 872.8L481.604 822.8L467.604 839.2V871.8C467.604 873.667 466.67 874.6 464.804 874.6H437.404Z" fill="#0A693D"/>
<path d="M388.688 874.6C387.888 874.6 387.222 874.4 386.688 874C386.288 873.6 386.022 873 385.888 872.2C385.488 870.467 385.088 868.2 384.688 865.4C384.288 862.6 383.888 859.667 383.488 856.6L381.088 848V807.6C381.088 803.2 380.222 800.133 378.488 798.4C376.888 796.667 373.955 795.8 369.688 795.8C361.822 795.8 358.155 798.933 358.688 805.2C358.822 807.067 357.888 808 355.888 808H331.688C329.955 808 328.955 807 328.688 805C327.888 794.333 331.088 786.333 338.288 781C345.488 775.533 356.355 772.8 370.888 772.8C385.822 772.8 396.555 775.667 403.088 781.4C409.755 787 413.088 796.2 413.088 809V848.8C413.088 852.8 413.155 856.667 413.288 860.4C413.422 864.133 413.688 867.867 414.088 871.6C414.355 873.6 413.488 874.6 411.488 874.6H388.688ZM350.288 877C342.022 877 335.622 874.533 331.088 869.6C326.688 864.667 324.488 857.733 324.488 848.8C324.488 841.867 325.755 836.267 328.288 832C330.955 827.6 335.288 824.2 341.288 821.8C347.288 819.267 355.422 817.533 365.688 816.6L383.888 814.8L383.688 831L370.488 832.4C364.755 832.933 360.755 834.133 358.488 836C356.222 837.867 355.088 840.8 355.088 844.8C355.088 848 355.688 850.333 356.888 851.8C358.222 853.133 360.222 853.8 362.888 853.8C366.355 853.8 369.755 852.8 373.088 850.8C376.422 848.667 380.222 845.2 384.488 840.4L386.488 857.6C383.022 861.2 379.488 864.467 375.888 867.4C372.422 870.2 368.622 872.533 364.488 874.4C360.355 876.133 355.622 877 350.288 877Z" fill="#222222"/>
<path d="M269.227 877C254.427 877 243.76 874.467 237.227 869.4C230.827 864.2 228.093 855.933 229.027 844.6C229.293 842.733 230.293 841.8 232.027 841.8H256.227C257.96 841.8 258.827 842.8 258.827 844.8C258.827 848.133 259.693 850.667 261.427 852.4C263.16 854.133 265.76 855 269.227 855C273.093 855 275.96 854.4 277.827 853.2C279.693 852 280.627 850.067 280.627 847.4C280.627 845.267 279.893 843.533 278.427 842.2C276.96 840.867 274.36 839.4 270.627 837.8L247.627 828C241.227 825.2 236.56 821.8 233.627 817.8C230.827 813.667 229.427 808.2 229.427 801.4C229.427 791.667 232.627 784.467 239.027 779.8C245.427 775.133 255.56 772.8 269.427 772.8C283.693 772.8 294.094 775.267 300.627 780.2C307.294 785 310.627 792.4 310.627 802.4C310.627 804.267 309.627 805.2 307.627 805.2H283.627C281.893 805.2 281.027 804.133 281.027 802C281.027 799.6 280.16 797.8 278.427 796.6C276.693 795.267 274.227 794.6 271.027 794.6C267.693 794.6 265.227 795.133 263.627 796.2C262.16 797.267 261.427 799 261.427 801.4C261.427 803 262.027 804.4 263.227 805.6C264.427 806.8 266.76 808.133 270.227 809.6L293.027 819C299.96 821.8 304.96 825.267 308.027 829.4C311.093 833.533 312.627 839.133 312.627 846.2C312.627 856.467 308.96 864.2 301.627 869.4C294.427 874.467 283.627 877 269.227 877Z" fill="#222222"/>
<path d="M187.712 874.6C186.912 874.6 186.245 874.4 185.712 874C185.312 873.6 185.045 873 184.912 872.2C184.512 870.467 184.112 868.2 183.712 865.4C183.312 862.6 182.912 859.667 182.512 856.6L180.112 848V807.6C180.112 803.2 179.245 800.133 177.512 798.4C175.912 796.667 172.978 795.8 168.712 795.8C160.845 795.8 157.178 798.933 157.712 805.2C157.845 807.067 156.912 808 154.912 808H130.712C128.978 808 127.978 807 127.712 805C126.912 794.333 130.112 786.333 137.312 781C144.512 775.533 155.378 772.8 169.912 772.8C184.845 772.8 195.578 775.667 202.112 781.4C208.778 787 212.112 796.2 212.112 809V848.8C212.112 852.8 212.178 856.667 212.312 860.4C212.445 864.133 212.712 867.867 213.112 871.6C213.378 873.6 212.512 874.6 210.512 874.6H187.712ZM149.312 877C141.045 877 134.645 874.533 130.112 869.6C125.712 864.667 123.512 857.733 123.512 848.8C123.512 841.867 124.778 836.267 127.312 832C129.978 827.6 134.312 824.2 140.312 821.8C146.312 819.267 154.445 817.533 164.712 816.6L182.912 814.8L182.712 831L169.512 832.4C163.778 832.933 159.778 834.133 157.512 836C155.245 837.867 154.112 840.8 154.112 844.8C154.112 848 154.712 850.333 155.912 851.8C157.245 853.133 159.245 853.8 161.912 853.8C165.378 853.8 168.778 852.8 172.112 850.8C175.445 848.667 179.245 845.2 183.512 840.4L185.512 857.6C182.045 861.2 178.512 864.467 174.912 867.4C171.445 870.2 167.645 872.533 163.512 874.4C159.378 876.133 154.645 877 149.312 877Z" fill="#222222"/>
<path d="M9.66914 874.6C7.80247 874.6 6.86914 873.667 6.86914 871.8V746.4C6.86914 744.533 7.80247 743.6 9.66914 743.6H54.4691C71.1358 743.6 83.6691 746.267 92.0691 751.6C100.469 756.8 104.669 764.8 104.669 775.6C104.669 783.6 102.936 789.933 99.4691 794.6C96.1358 799.267 90.9358 802.8 83.8691 805.2V805.8C92.1358 807.4 98.6025 810.6 103.269 815.4C107.936 820.067 110.269 826.733 110.269 835.4C110.269 849.4 105.869 859.467 97.0691 865.6C88.4025 871.6 74.1358 874.6 54.2691 874.6H9.66914ZM39.8691 848H56.0691C63.5358 848 68.9358 846.933 72.2691 844.8C75.6025 842.667 77.2691 839 77.2691 833.8C77.2691 829.133 75.5358 825.733 72.0691 823.6C68.7358 821.333 63.3358 820.2 55.8691 820.2H39.8691V848ZM39.8691 796.4H54.2691C60.4025 796.4 64.8025 795.267 67.4691 793C70.2691 790.733 71.6691 787.333 71.6691 782.8C71.6691 778.667 70.1358 775.533 67.0691 773.4C64.1358 771.267 59.4691 770.2 53.0691 770.2H39.8691V796.4Z" fill="#222222"/>
</svg>
