<svg width="511" height="642" viewBox="0 0 511 642" fill="none" xmlns="http://www.w3.org/2000/svg">
<path d="M360.047 0.341797C429.667 4.85798 487.185 53.7638 504.591 119.041H322.68C309.771 234 269.875 257 129.875 324.675C269.912 401.659 309.771 456 317.789 538.459H499.598C477.805 595.855 424.037 637.506 360.047 641.657V642H50C22.3858 642 0 619.614 0 592V50C4.96145e-06 22.3858 22.3858 8.04244e-07 50 0H360.047V0.341797Z" fill="#222222"/>
<path d="M351.132 493.665L510.733 493.665C510.733 441 520 338 375 320.5C471 320.5 510.734 240.5 510.734 163.665L366 163.665C365.568 230.548 294.068 288.025 199.207 325.383C294.375 358.769 341.86 425.5 351.132 493.665Z" fill="#0A693D"/>
</svg>
